
        <svg xmlns="http://www.w3.org/2000/svg" xmlns:xlink="http://www.w3.org/1999/xlink" version="1.1" width="3153.846153846154" 
        height="1915.3846153846155" viewBox="0 0 3153.846153846154 1915.3846153846155">
			
			<g transform="scale(7.6923076923076925) translate(10, 10)">
				<defs id="SvgjsDefs1734"></defs><g id="SvgjsG1735" featureKey="rootContainer" transform="matrix(1,0,0,1,0,0)" fill="#78a3a3"><rect xmlns="http://www.w3.org/2000/svg" width="390" height="229" rx="10" ry="10"></rect></g><g id="SvgjsG1736" featureKey="symbolFeature-0" transform="matrix(1.2240533217982328,0,0,1.2240533217982328,121.26504092860176,6.956493471560963)" fill="#ffffff"><g xmlns="http://www.w3.org/2000/svg"><path d="M108.789,38.902c-1.662-7.98-6.016-12.868-7.788-14.576c-4.953-4.953-11.538-7.681-18.543-7.681   c-7.005,0-13.59,2.728-18.543,7.681c-7.05,7.049-9.434,17.012-6.004,24.92c-0.123,0.313-0.522,0.892-0.798,1.292   c-0.382,0.554-0.82,1.193-1.155,1.897c-1.767-9.148-8.123-12.334-13.311-14.929c-5.026-2.514-8.997-4.5-9.324-10.753   c-0.183-3.5,0.754-6.305,2.784-8.337c4.497-4.502,12.962-4.135,13.098-4.13c0.99,0.055,1.848-0.711,1.902-1.708   c0.054-0.998-0.711-1.85-1.708-1.904c-0.416-0.024-10.174-0.481-15.837,5.172c-2.794,2.789-4.09,6.522-3.851,11.096   c0.437,8.357,5.968,11.124,11.318,13.799c4.481,2.241,8.76,4.385,10.703,9.848c-0.227-0.105-0.447-0.218-0.685-0.31   c-5.58-2.16-12.879-0.261-18.186,1.805c-0.889-2.162-2.806-3.774-4.626-4.672c-2.237-1.103-4.347-1.183-5.657-0.2   c-6.089,4.646-9.872,12.419-10.461,17.695c-0.241,2.158,0.069,3.769,0.921,4.788c1.537,1.837,3.276,2.432,4.975,2.432   c1.893,0,3.735-0.74,5.185-1.323c0.54-0.217,1.05-0.422,1.515-0.577c1.349-0.448,4.161-0.056,6.446,0.459   c-5.479,5.658-8.67,10.413-9.481,14.141c-1.862,6.192-0.956,15.205,5.264,21.46c3.34,3.358,8.917,6.615,17.984,6.615   c4.287,0,9.355-0.728,15.336-2.519c12.131-3.689,28.483-11.876,37.999-23.789c0.019-0.024,0.037-0.047,0.055-0.072   c5.465-7.589,5.311-13.051,5.163-18.334c-0.063-2.241-0.122-4.362,0.261-6.628C108.233,52.021,110.242,45.87,108.789,38.902z    M100.366,60.235c-0.067,0.142-0.115,0.294-0.144,0.449c-0.496,2.725-0.426,5.206-0.359,7.606   c0.138,4.888,0.268,9.504-4.456,16.082c-9.014,11.26-25.128,19.184-36.19,22.548c-16.904,5.061-25.487,1.062-29.709-3.184   c-5.191-5.22-5.924-12.766-4.347-17.929c0.016-0.052,0.029-0.105,0.041-0.158c1.364-6.525,13.158-17.182,17.589-20.738   c0.779-0.625,0.904-1.763,0.278-2.543c-0.625-0.778-1.764-0.904-2.542-0.278c-0.142,0.113-2.949,2.374-6.378,5.636   c-0.002-0.001-0.005-0.002-0.007-0.003c-0.721-0.215-7.145-2.07-10.572-0.925c-0.569,0.19-1.154,0.424-1.72,0.652   c-3.11,1.25-4.62,1.618-6.024-0.056c-0.904-1.425,1.376-11.479,8.869-17.245c0.361-0.069,1.615,0.145,2.978,1.137   c0.472,0.343,1.418,1.138,1.852,2.219c-2.097,0.971-3.476,1.756-3.658,1.861c-0.865,0.499-1.162,1.605-0.663,2.47   c0.5,0.865,1.605,1.162,2.47,0.663c1.04-0.6,2.635-1.416,4.539-2.238c0.046-0.018,0.09-0.037,0.134-0.058   c5.163-2.213,12.535-4.432,17.392-2.551c2.096,0.812,3.579,2.315,4.512,4.575c-2.325,2.201-4.132,5.387-4.836,8.709   c-0.696,3.283-0.232,6.305,1.306,8.509c0.386,0.553,0.89,1.058,1.488,1.521l-7.25,15.209c-0.43,0.902-0.047,1.981,0.854,2.411   c0.251,0.12,0.516,0.177,0.777,0.177c0.675,0,1.323-0.38,1.634-1.031l7.153-15.006c6.989,2.894,18.618,3.181,22.907,3.181   c0.669,0,1.16-0.007,1.426-0.012c0.999-0.018,1.793-0.843,1.774-1.842c-0.018-0.987-0.824-1.775-1.807-1.775   c-0.011,0-0.023,0-0.034,0.001c-7.336,0.13-19.073-0.714-24.042-3.368c-0.097-0.074-0.202-0.139-0.316-0.193   c-0.028-0.013-0.057-0.019-0.084-0.03c-0.663-0.398-1.179-0.835-1.513-1.312c-0.959-1.375-1.22-3.395-0.734-5.689   c0.698-3.293,2.824-6.509,5.251-7.978c0.545-0.346,1.207-0.503,2.302-0.739c0.049,0.906,0.062,2.057,0.036,3.048   c-0.023,0.865,0.57,1.626,1.416,1.814c0.967,0.215,1.872,1.094,2.828,2.025c0.011,0.011,0.023,0.023,0.035,0.034   c-2.693,0.67-4.479,1.251-4.731,1.334c-0.948,0.314-1.462,1.337-1.148,2.285c0.251,0.759,0.958,1.241,1.717,1.241   c0.188,0,0.38-0.03,0.568-0.092c0.215-0.07,21.661-7.049,32.04-0.873c0.86,0.512,1.969,0.228,2.479-0.629   c0.511-0.858,0.229-1.969-0.629-2.479c-7.131-4.243-18.086-3.27-25.851-1.768c-0.638-0.366-1.283-0.988-1.957-1.645   c-0.899-0.874-1.888-2.057-3.294-2.291c0.059-1.182,0.093-3.341-0.192-4.392c-0.004-0.018-0.009-0.034-0.014-0.052   c-0.012-0.042-0.022-0.091-0.035-0.13c-0.008-0.024-0.021-0.044-0.029-0.067c-0.026-0.07-0.056-0.137-0.09-0.203   c-0.021-0.04-0.042-0.079-0.066-0.117c-0.037-0.06-0.078-0.116-0.122-0.171c-0.031-0.039-0.062-0.076-0.096-0.112   c-0.042-0.045-0.087-0.086-0.134-0.126c-0.045-0.039-0.089-0.075-0.138-0.109c-0.041-0.029-0.083-0.055-0.126-0.08   c-0.062-0.036-0.124-0.07-0.189-0.098c-0.036-0.016-0.072-0.029-0.109-0.043c-0.076-0.028-0.153-0.051-0.233-0.069   c-0.037-0.008-0.074-0.014-0.111-0.02c-0.075-0.012-0.149-0.019-0.225-0.022c-0.028-0.001-0.054-0.008-0.082-0.008   c0,0-0.001,0-0.001,0l0,0c0,0,0,0,0,0c-0.37,0.006-0.693,0.004-0.976-0.006c-1.736-0.059-1.688-0.022-1.977-0.465   c-0.289-0.443,0.556-1.412,1.021-2.086c0.834-1.209,1.779-2.58,1.376-4.185c-0.027-0.108-0.064-0.214-0.111-0.316   c-3.03-6.594-0.974-15.117,5.117-21.208c4.27-4.27,9.947-6.621,15.985-6.621s11.715,2.352,16.008,6.644   c1.554,1.498,5.324,5.739,6.781,12.733C106.503,45.659,104.588,51.298,100.366,60.235z"></path><path d="M88.083,48.944c-1.499-1.233-3.679-1.607-5.689-0.974c-0.953,0.301-1.481,1.316-1.181,2.269   c0.301,0.953,1.318,1.481,2.269,1.181c0.841-0.267,1.745-0.141,2.302,0.317c0.459,0.378,0.648,0.953,0.563,1.711   c-0.145,1.288-1.576,2.886-3.003,3.353c-0.946,0.308-1.289-0.062-1.434-0.221c-0.676-0.735-1.82-0.782-2.556-0.105   c-0.735,0.676-0.782,1.821-0.105,2.556c0.913,0.991,2.112,1.507,3.433,1.507c0.577,0,1.177-0.098,1.786-0.298   c2.768-0.905,5.172-3.711,5.473-6.387C90.163,51.887,89.486,50.097,88.083,48.944z"></path></g></g><g id="SvgjsG1737" featureKey="nameFeature-0" transform="matrix(1.5382201185908055,0,0,1.5382201185908055,16.755711916602177,146.7874735611711)" fill="#ffffff"><path d="M18.24 34.6 c-0.92 3.84 -4.44 5.68 -7.96 5.68 c-4 0 -7.96 -2.4 -8 -6.92 c0.92 -0.04 1.84 -0.04 2.8 0 c0.48 1.44 0.92 2.68 2.44 3.56 c0.88 0.48 1.92 0.72 2.96 0.72 c1.96 0 4 -0.84 4.92 -2.56 c1.56 -3.48 -0.6 -6.72 -4.2 -7.4 c-2.68 -0.68 -5.68 -1.08 -7.52 -3.36 c-0.88 -1 -1.36 -2.28 -1.48 -3.6 c-0.76 -5.32 3.36 -8.88 8.12 -8.88 c0.8 0 1.56 0.08 2.36 0.28 c2.96 0.56 5.88 3.64 5.68 6.64 c-0.96 0.08 -1.88 0.04 -2.84 0 c-0.56 -2.04 -1.8 -3.88 -4.24 -4.16 c-7.36 -1.24 -9.28 8.12 -2.04 9.8 c1.2 0.36 2.44 0.56 3.6 0.92 c4.2 0.88 6.48 5.24 5.4 9.28 z M6.72 23.52 l0 0 z M15.56 35.24 l0 -0.08 c0 0.04 -0.04 0.08 -0.04 0.08 l0.04 0 z M42.480000000000004 33.12 c-0.76 0 -1.72 0.2 -2.36 0 c-0.04 -0.08 -0.04 -0.12 -0.08 -0.16 c-0.04 -0.16 -0.08 -0.28 -0.12 -0.44 c-0.72 -1.88 -1.28 -3.84 -2.12 -5.68 c-2.72 -0.04 -5.48 -0.04 -8.2 0 c-0.84 1.84 -1.4 3.8 -2.12 5.68 c-0.04 0.16 -0.08 0.28 -0.12 0.44 c-0.04 0.04 -0.04 0.08 -0.08 0.16 c-0.64 0.2 -1.6 0 -2.36 0 c-0.96 0.12 0.88 -3.08 0.92 -3.76 c2.16 -5.76 4.36 -11.6 6.52 -17.32 c0.84 -0.04 1.84 -0.04 2.68 0 c2.56 6.96 5.32 13.96 7.8 20.96 c0 0.16 -0.24 0.08 -0.36 0.12 z M33.68 16.12 c-1.16 2.84 -2.32 5.72 -3.4 8.6 c2.28 -0.04 4.52 -0.08 6.8 -0.08 c-1.08 -2.84 -2.2 -5.68 -3.4 -8.52 z M33.96 39.8 c-0.76 0.24 -1.28 -1.12 -1.88 -1.44 c-0.24 -0.76 1.04 -1.28 1.36 -1.92 c0.68 -0.48 1.32 1.08 1.92 1.36 c0.24 0.76 -1.08 1.32 -1.4 2 z M52.68 39.48 c0.04 0.56 -0.08 0.52 -0.6 0.52 c-0.4 0 -0.84 -0.04 -1.24 -0.04 c-0.96 0 -0.96 0.16 -0.92 -0.8 c0.16 -8.64 -0.04 -17.28 0.04 -25.92 l0 -0.28 c0.04 -0.32 0.6 -0.24 0.88 -0.32 c2.6 -0.44 5.12 -0.8 7.76 -0.8 c4.2 0 8.36 0.8 12.6 1.08 c5.8 0.48 7.68 -0.84 8.4 -0.84 c0.48 0 0.48 0.48 0.72 2.08 c-0.88 1.04 -3.16 1.4 -5.84 1.4 c-4.48 0 -10.16 -0.96 -12.52 -1.08 c-2.8 -0.08 -5.72 -0.2 -8.44 0.48 c-0.16 0.08 -0.28 0.12 -0.44 0.16 s-0.32 0.12 -0.48 0.2 c0.04 0 0.04 0 0.08 0.04 c-0.04 0 -0.08 0.04 -0.08 0.04 c0 3.04 0 6.08 0.04 9.12 c2.72 0.04 5.44 0 8.16 0.04 l0.56 0 c0.08 0.04 0.24 -0.04 0.28 0.08 c-0.04 0.76 0.24 1.8 -0.04 2.44 c-3 -0.08 -5.96 -0.08 -8.96 -0.12 c0.08 4.2 0.08 8.36 0.04 12.52 z M79.72 39.92 c-4.76 0 -9.56 0.04 -14.32 -0.04 c-0.08 0.04 -0.2 0 -0.2 -0.08 c-0.16 -1.88 -0.08 -3.76 -0.04 -5.64 c0.04 -5 -0.28 -10 -0.04 -15 l0 0 c0 -0.08 -0.04 -0.16 0.04 -0.2 c4.8 -0.2 9.84 -0.2 14.72 -0.2 c0.08 0 0.2 0 0.16 0.12 l0 0.04 c-0.08 0.72 0.24 1.84 -0.16 2.36 c-4.04 0.08 -8.08 0.04 -12.08 0.16 c0 2.28 -0.04 4.6 0.04 6.88 c0.24 0 0.52 0.04 0.76 0.04 c2.92 0.08 6 -0.16 8.8 0 c-0.2 0.64 0.44 2.56 -0.6 2.36 c-3 -0.04 -6 0 -9.04 0 c0.08 2.24 0.08 4.52 0.12 6.76 c4.04 -0.04 8.08 -0.12 12.12 -0.04 l0.08 0 c0.2 0.48 -0.04 1.28 0 1.88 c-0.04 0.28 0.04 0.68 -0.36 0.6 z M77.24 28.439999999999998 l0 0.12 l0 -0.12 z M107.52 40.56 c-1.52 0.04 -2.76 0.2 -3.6 -1.32 c-1.4 -1.76 -1.96 -4 -2.96 -6 c-0.96 -1.72 -2.2 -3.36 -3.96 -4.36 c-0.24 -0.16 -0.52 -0.32 -0.8 -0.44 c-1.68 -0.04 -3.36 0 -5.04 -0.16 c0.04 3.56 0 7.16 0 10.72 c-0.08 0.24 0.12 0.96 -0.16 1 c-0.68 0 -1.36 0 -2 -0.08 c-0.12 -0.08 -0.52 0.04 -0.48 -0.2 c0.24 -7.76 0 -15.56 0.12 -23.36 c0 -1.4 -0.08 -2.8 0 -4.2 c0.04 -0.08 0.12 -0.08 0.16 -0.08 c0.56 0 1.12 -0.04 1.64 0 c1.92 -0.04 3.84 -0.04 5.76 0.04 c1.32 0.04 2.68 0.12 3.92 0.64 c3 1.32 4.76 3.92 4.92 7.2 c0 0.04 0 0.04 0.04 0.08 l0 0.08 l0 0.16 c0 0.16 -0.04 0.36 -0.04 0.52 c-0.04 0.36 -0.04 0.72 -0.12 1.08 c-0.16 1.04 -0.52 2.04 -1.12 2.96 c-0.64 0.84 -1.2 1.56 -2.08 2.16 c-0.08 0.04 -0.16 0.12 -0.24 0.16 c-0.2 0.16 -0.32 0.2 -0.52 0.28 c-0.44 0.24 -0.88 0.4 -1.32 0.52 c1.6 1.08 3.2 2.88 4 4.68 l0 -0.04 c0.8 1.44 1.28 3 2.04 4.44 c0.24 0.4 0.48 0.8 0.76 1.2 c0.48 0.92 1.76 1.56 2.12 2.24 c-0.32 0.12 -0.72 0.08 -1.04 0.08 z M91.19999999999999 25.880000000000003 c2.84 -0.04 6.04 0.48 8.68 -0.84 c0.32 -0.16 0.6 -0.4 0.84 -0.6 c0.12 -0.08 0.2 -0.2 0.32 -0.28 c0.16 -0.16 0.28 -0.36 0.44 -0.52 c0.12 -0.2 0.28 -0.44 0.4 -0.72 c1.12 -2.44 0.6 -5.76 -1.6 -7.4 c-1.44 -0.96 -3.12 -1.16 -4.84 -1.16 c-1.44 0 -2.88 0.12 -4.24 0.12 l0 11.4 z M103.44 25.4 l0 0 z M108.6 40.48 l0 0 z M147.2 34.480000000000004 c-1.36 4.84 -5.88 5.56 -10.44 5.56 c-2.24 0 -4.52 -0.16 -6.44 -0.12 l-0.16 0 c-0.44 -7 0.24 -14.52 0.04 -21.68 c-0.08 -2.04 0 -4.08 -0.04 -6.12 l0.04 -0.08 c2.24 0.12 4.68 -0.16 7.08 -0.16 c2.64 0 5.16 0.36 7.28 2.04 c3.64 3.12 2.76 10.2 -2.12 11.6 c2.28 0.48 4.16 2.44 4.68 4.72 c0.2 0.6 0.28 1.2 0.32 1.84 l0 0.72 l0 0.2 c0 0.04 0 0.12 -0.04 0.16 l0 0.04 c0 0.16 0 0.36 -0.04 0.52 l0 0.04 c-0.04 0.24 -0.12 0.48 -0.16 0.72 z M132.76 24.16 c2.44 -0.04 4.88 0.08 7.28 -0.12 c0.92 -0.12 1.8 -0.44 2.56 -1.04 c0.64 -0.44 1.28 -1.44 1.44 -2.2 c0.08 -0.28 0.16 -0.6 0.2 -0.88 c0.08 -0.4 0.08 -0.84 0 -1.28 c-0.04 -0.24 -0.08 -0.52 -0.16 -0.8 c-0.04 -0.2 -0.12 -0.36 -0.16 -0.56 l0 0.04 l0 -0.04 l-0.04 -0.04 l0 0.04 c-0.04 -0.12 -0.08 -0.2 -0.12 -0.28 l0 0.04 c-0.28 -0.52 -0.68 -0.92 -1.16 -1.28 l0.04 0 c-0.4 -0.32 -0.92 -0.6 -1.4 -0.8 c-0.4 -0.2 -0.88 -0.28 -1.32 -0.36 c-2.36 -0.2 -4.76 -0.2 -7.16 -0.16 c0 0.88 0.04 1.8 0 2.68 c-0.04 2.36 -0.04 4.68 0 7.04 z M132.6 24.119999999999997 l-0.08 0 l0.08 0 z M132.68 37.36 c2.56 -0.04 5.16 0.28 7.68 -0.04 c0.84 -0.12 1.68 -0.32 2.4 -0.84 l-0.04 0 c0.84 -0.56 1.44 -1.56 1.84 -2.48 c0.08 -0.16 0.12 -0.36 0.2 -0.56 l-0.04 0 c0.16 -0.56 0.24 -1.12 0.24 -1.72 c0 -1.4 -0.76 -2.6 -1.8 -3.48 c-1 -0.76 -2.16 -1.2 -3.4 -1.36 c-2.32 -0.24 -4.68 -0.08 -7 -0.16 c-0.08 3.56 -0.12 7.08 -0.08 10.64 z M132.84 37.56 l-0.12 0 l0.12 0 z M157.4 15.48 c-0.72 0.28 -1.24 -1.04 -1.84 -1.4 c-0.28 -0.72 1.08 -1.28 1.4 -1.92 c0.72 -0.28 1.24 1.08 1.84 1.4 c0.2 0.76 -1.08 1.28 -1.4 1.92 z M158.4 40 c-0.84 -0.08 -2.04 0.2 -2.68 -0.16 c0 -2.96 0.04 -5.92 0.12 -8.88 l0 -1.08 c0.08 -3.28 -0.04 -6.6 0 -9.92 l0 -0.04 c0.08 -0.28 -0.12 -0.72 0.12 -0.92 c0.76 0.08 1.72 -0.16 2.4 0.08 c0.16 2.44 0.12 4.88 0.04 7.32 c0 3.4 0 6.84 0.12 10.24 c-0.08 1.08 0.2 2.4 -0.12 3.36 z M200.64 40 c-1.44 0.24 -2.92 0.28 -4.36 0.12 c-9.4 -0.44 -8.24 -8 -15.68 -11.04 c-1.2 -0.6 -2.24 -0.96 -3.44 -0.96 c-0.48 0 -0.92 0.08 -1.44 0.16 c-1.84 0.12 -3.64 0 -5.48 -0.08 c0.04 3.52 -0.04 7.08 0 10.6 c-0.08 0.28 0.12 0.88 -0.16 1 l-1 0 c-0.32 0 -0.68 -0.04 -1 -0.08 c-0.12 -0.04 -0.52 0.04 -0.48 -0.2 c0.24 -8.8 0 -17.68 0.12 -26.52 c0.04 -0.32 -0.2 -1.04 0.36 -0.92 c2.36 -0.04 4.76 -0.04 7.12 0.04 c4.84 -0.24 8.84 3.24 8.84 8.16 c0 2.44 -1.04 4.96 -3.08 6.44 c8.32 3.08 8.24 11 16.4 11 c1.4 0 3.08 -0.24 5.12 -0.8 c0.04 0.24 0.04 0.52 0.04 0.76 l0 1.28 c0.04 0.56 -1.4 0.92 -1.88 1.04 z M196.35999999999999 32.72 c-0.72 0.12 -1.52 0.08 -2.24 0.12 c-0.4 -3.96 -0.08 -8.32 -0.08 -12.4 l0 -5.88 c-2.2 -0.04 -4.4 -0.08 -6.6 -0.04 c-0.32 -0.28 -0.16 -1 -0.24 -1.44 c0 -0.2 0 -0.36 0.04 -0.56 c0.16 -0.76 1.56 -0.28 2.16 -0.44 c4.56 -0.04 9.2 0.04 13.72 0.12 c0.12 0.68 0.04 1.44 0.12 2.16 c0 0.04 0 0.04 -0.04 0.08 c-2.08 0.32 -4.56 0.08 -6.76 0.12 c0.04 2 0.04 4.04 0.04 6.04 l0 0.08 c-0.08 4 0 8.08 -0.12 12.04 z M170.23999999999998 25.759999999999998 c3.6 -0.04 8.64 0.96 10.64 -2.88 c1.32 -2.84 0.28 -6.88 -2.8 -8.04 c-2.44 -0.8 -5.28 -0.4 -7.84 -0.4 c-0.04 3.8 0 7.56 0 11.32 z M228.56 39.96 c-0.56 -0.08 -1.32 0.2 -1.76 -0.04 c0.12 -4.28 0.12 -8.56 0.16 -12.84 c-0.68 0.04 -1.36 0 -2.04 0 l-0.64 0 l-0.52 0 c-3.52 0.08 -7.04 0.08 -10.56 0.16 c0.04 4.2 0.04 8.4 0.16 12.6 c-0.72 0.28 -1.8 0 -2.64 0.08 c-0.04 0 -0.12 -0.04 -0.12 -0.08 c0 -2.4 0.04 -4.8 0.04 -7.2 l0 -0.08 c-0.04 -2.32 0 -4.68 0.04 -7 c0 -4.4 -0.04 -8.76 -0.16 -13.16 c-0.12 -0.68 1.28 -0.2 1.76 -0.32 c0.32 0.04 0.76 -0.16 1 0.08 c0 2.4 -0.04 4.8 -0.04 7.16 l0 0.12 c0.04 1.76 0 3.52 -0.04 5.28 c4.6 0.08 9.16 -0.12 13.76 0.04 c-0.04 -1.76 -0.08 -3.52 -0.04 -5.28 c-0.04 -0.04 0 -0.04 0 -0.08 c0 -2.2 0 -4.36 -0.04 -6.56 c0 -0.2 -0.04 -0.44 0 -0.64 c0 -0.04 0.08 -0.08 0.12 -0.08 c0.6 0.16 2.76 -0.44 2.64 0.36 c-0.12 4.36 -0.16 8.76 -0.16 13.16 c0.04 2.32 0.08 4.64 0.04 7 l0 0.08 c0 2.16 0 4.36 0.04 6.52 c0 0.2 0.04 0.44 -0.04 0.68 c-0.2 0.2 -0.64 0 -0.96 0.04 z M213.04 24.92 l0 0.2 l0 -0.2 z M213 27.240000000000002 l0 0.36 l0 -0.36 z"></path></g>
			</g>
		</svg>
	